<svg xmlns="http://www.w3.org/2000/svg" viewBox="0 0 29 29"><g data-name="Layer 2"><path fill="#1d63ed" d="M14.5 0A14.5 14.5 0 1 0 29 14.5 14.5 14.5 0 0 0 14.5 0zm-3.41 20.41a1.75 1.75 0 0 1-1.8.75 1.75 1.75 0 0 1-1.38-1.38 1.76 1.76 0 1 1 3.18.63zm5.08.5a.46.46 0 0 1-.09.15.4.4 0 0 1-.15.1.47.47 0 0 1-.17 0h-1.32a.45.45 0 0 1-.44-.41 6.12 6.12 0 0 0-5.72-5.72.47.47 0 0 1-.28-.1.41.41 0 0 1-.11-.3v-1.32a.47.47 0 0 1 0-.17A.4.4 0 0 1 8 13a.46.46 0 0 1 .15-.09h.18a8.34 8.34 0 0 1 7.86 7.86.57.57 0 0 1-.02.14zm4-.17a.47.47 0 0 1 0 .17.31.31 0 0 1-.1.15.71.71 0 0 1-.14.1.47.47 0 0 1-.17 0h-1.37a.42.42 0 0 1-.3-.12.43.43 0 0 1-.13-.3 10.1 10.1 0 0 0-9.66-9.63A.43.43 0 0 1 8 11a.42.42 0 0 1-.12-.3V9.36a.47.47 0 0 1 0-.17A.4.4 0 0 1 8 9a.38.38 0 0 1 .16 0 .47.47 0 0 1 .17 0 12.29 12.29 0 0 1 11.82 11.74z" data-name="Layer 1"/></g></svg>