<svg xmlns="http://www.w3.org/2000/svg" viewBox="0 0 29 29"><defs><style>.cls-1{fill:#1d63ed}</style></defs><g id="Layer_2" data-name="Layer 2"><g id="Layer_1-2" data-name="Layer 1"><path d="M20.35 9.59a2.34 2.34 0 0 0-.55-.87 2.5 2.5 0 0 0-.87-.56 4.35 4.35 0 0 0-1.39-.26c-.79 0-1 0-3-.05s-2.24 0-3 0a4.15 4.15 0 0 0-1.39.25 2.5 2.5 0 0 0-.87.56 2.46 2.46 0 0 0-.56.86A4.5 4.5 0 0 0 8.4 11c0 .79 0 1-.05 3s0 2.24 0 3a3.85 3.85 0 0 0 .26 1.39 2.23 2.23 0 0 0 .55.86 2.39 2.39 0 0 0 .87.57 4.35 4.35 0 0 0 1.39.26h6a3.85 3.85 0 0 0 1.39-.26 2.14 2.14 0 0 0 .86-.56 2.27 2.27 0 0 0 .57-.86 4.35 4.35 0 0 0 .36-1.4v-6a3.85 3.85 0 0 0-.25-1.41zm-5.86 8.26A3.85 3.85 0 1 1 18.35 14a3.85 3.85 0 0 1-3.86 3.85zm4.84.51a.94.94 0 0 1-.34.4.87.87 0 0 1-.5.15.94.94 0 0 1-.63-.26.9.9 0 0 1-.26-.65.89.89 0 0 1 .15-.5.92.92 0 0 1 .4-.33.92.92 0 0 1 1 .19.94.94 0 0 1 .25.47 1 1 0 0 1-.07.53z" class="cls-1"/><path d="M15.89 11.92a2.52 2.52 0 0 0-1.38-.42 2.42 2.42 0 0 0-1 .19 2.35 2.35 0 0 0-.81.54 2.48 2.48 0 0 0-.55.81A2.6 2.6 0 0 0 12 14a2.5 2.5 0 0 0 4.26 1.78 2.51 2.51 0 0 0 .74-1.29 2.46 2.46 0 0 0-.14-1.44 2.54 2.54 0 0 0-.97-1.13z" class="cls-1"/><path d="M14.5 0A14.5 14.5 0 1 0 29 14.5 14.5 14.5 0 0 0 14.5 0zM22 14c0 2 0 2.3-.05 3.1a5.74 5.74 0 0 1-.35 1.82 3.7 3.7 0 0 1-.87 1.32 3.66 3.66 0 0 1-1.33.86 5.48 5.48 0 0 1-1.82.35h-3.09c-2.03 0-2.3 0-3.1-.05a5.8 5.8 0 0 1-1.82-.35 3.7 3.7 0 0 1-1.32-.87 3.66 3.66 0 0 1-.86-1.33A5.48 5.48 0 0 1 7 17.08V10.9a5.8 5.8 0 0 1 .4-1.83 3.7 3.7 0 0 1 .87-1.32 3.82 3.82 0 0 1 1.33-.87 5.56 5.56 0 0 1 1.82-.34h6.19a5.74 5.74 0 0 1 1.82.35 3.7 3.7 0 0 1 1.32.87 3.66 3.66 0 0 1 .86 1.33 5.48 5.48 0 0 1 .39 1.83V14z" class="cls-1"/></g></g></svg>